# xmcd
#
# Track frame offsets:
#	150
#	13595
#	28792
#	46864
#	71110
#	88917
#	105720
#	123027
#	139540
#	156760
#	172885
#	186330
#	201527
#	219597
#	243845
#	261650
#	278452
#	295757
#	312270
#	329490
#
# Disc length: 4608 seconds
#
# Revision: 0
# Processed by: cddbd v1.5.1PL2 Copyright (c) Steve Scherf et al.
# Submitted via: audiograbber 1.83.01
#
DISCID=2811fe14
DTITLE=Top Hits Monthly Country - Thmc0304
DYEAR=2003
DGENRE=Karaoke
TTITLE0=Shania Twain (Vocal) - Up
TTITLE1=Alan Jackson (Vocal) - That'd Be Alright
TTITLE2=Jeff Bates (Vocal) - Love Song
TTITLE3=Dixie Chicks (Vocal) - Travelin' Soldier
TTITLE4=Kenny Chesney (Vocal) - Big Star
TTITLE5=Montgomery Gentry (Vocal) - Speed
TTITLE6=Toby Keith (Vocal) - Rock You Baby
TTITLE7=Jessica Andrews (Vocal) - There's More To Me Than You
TTITLE8=Jo Dee Messina (Vocal) - Was That My Life
TTITLE9=Phil Vassar (Vocal) - This Is God
TTITLE10=Shania Twain - Up
TTITLE11=Alan Jackson - That'd Be Alright
TTITLE12=Jeff Bates - Love Song
TTITLE13=Dixie Chicks - Travelin' Soldier
TTITLE14=Kenny Chesney - Big Star
TTITLE15=Montgomery Gentry - Speed
TTITLE16=Toby Keith - Rock You Baby
TTITLE17=Jessica Andrews - There's More To Me Than You
TTITLE18=Jo Dee Messina - Was That My Life
TTITLE19=Phil Vassar - This Is God
EXTD=
EXTT0=
EXTT1=
EXTT2=
EXTT3=
EXTT4=
EXTT5=
EXTT6=
EXTT7=
EXTT8=
EXTT9=
EXTT10=
EXTT11=
EXTT12=
EXTT13=
EXTT14=
EXTT15=
EXTT16=
EXTT17=
EXTT18=
EXTT19=
PLAYORDER=
